# xmcd
#
# Track frame offsets: 
#        150
#        12805
#        25555
#        38097
#        48775
#        58114
#        68562
#        80972
#        91815
#        101375
#        113312
#        123892
#        133440
#        144930
#        156582
#
# Disc length: 2281 seconds
#
# Revision: 3
# Processed by: cddbd v1.5.2PL0 Copyright (c) Steve Scherf et al.
# Submitted via: ExactAudioCopy v1.1
#
DISCID=b808e70f
DTITLE=Various Artist - Ralph Emery Presents Country Roads - On The Road Agai
DTITLE=n
DYEAR=2006
DGENRE=Country
TTITLE0=Red Foley - Chattanoogie Shoe Shine Boy
TTITLE1=Jerry Lee Lewis - Chantilly Lace
TTITLE2=Hank Snow - I've Been Everywhere
TTITLE3=Hank Locklin - Please Help Me, I'm Falling
TTITLE4=Flatt and Scruggs - Ballad of Jed Clampett
TTITLE5=Barbara Mandrell - Sleeping Single in a Double Bed
TTITLE6=Johnny Cash and June Carter Cash - Jackson
TTITLE7=Kendalls - Heaven's Just a Sin Away
TTITLE8=Tom T. Hall - I Love You
TTITLE9=Tammy Wynette - He Loves Me All The Way
TTITLE10=Merle Haggard and The Strangers - Today I Started Loving You Ag
TTITLE10=ain
TTITLE11=Freddie Hart - My Hang Up is You
TTITLE12=Willie Nelson - On the Road Again
TTITLE13=Joe Stampley - Roll On Big Mama
TTITLE14=Eddie Rabbitt - Drivin' My Life Away
EXTD=Raplh Emery Country Roads
EXTT0=
EXTT1=
EXTT2=
EXTT3=
EXTT4=
EXTT5=
EXTT6=
EXTT7=
EXTT8=
EXTT9=
EXTT10=
EXTT11=
EXTT12=
EXTT13=
EXTT14=
PLAYORDER=
